<?xml version="1.0" encoding="UTF-8" standalone="no"?>
<!-- Auto-generated SVG export of the domain ERD for UWDialed -->
<svg xmlns="http://www.w3.org/2000/svg" width="900" height="420" viewBox="0 0 900 420">
  <style>
    .entity { fill: #fff; stroke: #222; stroke-width: 2px; }
    .title { font: bold 14px sans-serif; }
    .attr { font: 12px sans-serif; }
    .rel { stroke: #444; stroke-width: 1.5px; }
  </style>

  <!-- USER -->
  <rect class="entity" x="40" y="30" width="240" height="130" rx="6" ry="6" />
  <text class="title" x="60" y="54">User</text>
  <text class="attr" x="60" y="74">id : SERIAL &lt;PK&gt;</text>
  <text class="attr" x="60" y="92">username : TEXT</text>
  <text class="attr" x="60" y="110">email : TEXT</text>
  <text class="attr" x="60" y="128">created_at : TIMESTAMP</text>

  <!-- STUDYSPOT -->
  <rect class="entity" x="620" y="30" width="240" height="140" rx="6" ry="6" />
  <text class="title" x="640" y="54">StudySpot</text>
  <text class="attr" x="640" y="74">id : SERIAL &lt;PK&gt;</text>
  <text class="attr" x="640" y="92">name : TEXT</text>
  <text class="attr" x="640" y="110">location : TEXT</text>
  <text class="attr" x="640" y="128">capacity : INTEGER</text>

  <!-- PREFERENCE -->
  <rect class="entity" x="40" y="200" width="300" height="120" rx="6" ry="6" />
  <text class="title" x="60" y="224">Preference</text>
  <text class="attr" x="60" y="244">id : SERIAL &lt;PK&gt;</text>
  <text class="attr" x="60" y="262">user_id : INTEGER &lt;FK&gt;</text>
  <text class="attr" x="60" y="280">key : TEXT</text>
  <text class="attr" x="60" y="298">value : TEXT</text>

  <!-- RECOMMENDATION -->
  <rect class="entity" x="480" y="200" width="380" height="120" rx="6" ry="6" />
  <text class="title" x="500" y="224">Recommendation</text>
  <text class="attr" x="500" y="244">id : SERIAL &lt;PK&gt;</text>
  <text class="attr" x="500" y="262">user_id : INTEGER &lt;FK&gt;</text>
  <text class="attr" x="500" y="280">studyspot_id : INTEGER &lt;FK&gt;</text>
  <text class="attr" x="500" y="298">score : DOUBLE PRECISION</text>

  <!-- Relationships (lines) -->
  <!-- User -> Preference -->
  <line class="rel" x1="280" y1="140" x2="160" y2="200" />
  <text x="200" y="168" font-size="12" fill="#222">1..*</text>

  <!-- User -> Recommendation -->
  <line class="rel" x1="280" y1="100" x2="500" y2="240" />
  <text x="380" y="170" font-size="12" fill="#222">1..*</text>

  <!-- StudySpot -> Recommendation -->
  <line class="rel" x1="620" y1="170" x2="620" y2="200" />
  <text x="650" y="186" font-size="12" fill="#222">1..*</text>

  <!-- Labels -->
  <text x="60" y="18" class="title">UWDialed — Domain ERD</text>
  <text x="60" y="402" font-size="11" fill="#444">Generated SVG export — review and adjust layout as needed.</text>
</svg>
